<svg xmlns="http://www.w3.org/2000/svg" xmlns:xlink="http://www.w3.org/1999/xlink" width="500" zoomAndPan="magnify" viewBox="0 0 375 374.999991" height="500" preserveAspectRatio="xMidYMid meet" version="1.2"><defs><clipPath id="464315478c"><path d="M 13.574219 13.574219 L 361.425781 13.574219 L 361.425781 361.425781 L 13.574219 361.425781 Z M 13.574219 13.574219 "/></clipPath><clipPath id="c64d1d0033"><path d="M 187.5 13.574219 C 91.441406 13.574219 13.574219 91.441406 13.574219 187.5 C 13.574219 283.558594 91.441406 361.425781 187.5 361.425781 C 283.558594 361.425781 361.425781 283.558594 361.425781 187.5 C 361.425781 91.441406 283.558594 13.574219 187.5 13.574219 Z M 187.5 13.574219 "/></clipPath><clipPath id="0307e2a9d0"><path d="M 0.574219 0.574219 L 348.425781 0.574219 L 348.425781 348.425781 L 0.574219 348.425781 Z M 0.574219 0.574219 "/></clipPath><clipPath id="e289ea19af"><path d="M 174.5 0.574219 C 78.441406 0.574219 0.574219 78.441406 0.574219 174.5 C 0.574219 270.558594 78.441406 348.425781 174.5 348.425781 C 270.558594 348.425781 348.425781 270.558594 348.425781 174.5 C 348.425781 78.441406 270.558594 0.574219 174.5 0.574219 Z M 174.5 0.574219 "/></clipPath><clipPath id="d29ba519e0"><rect x="0" width="349" y="0" height="349"/></clipPath><clipPath id="b3fa3a8296"><path d="M 93 161 L 184 161 L 184 239.664062 L 93 239.664062 Z M 93 161 "/></clipPath><clipPath id="2baf5eb0ca"><path d="M 193 161 L 284 161 L 284 239.664062 L 193 239.664062 Z M 193 161 "/></clipPath><clipPath id="2a81475d04"><path d="M 55.726562 57.414062 L 187 57.414062 L 187 184 L 55.726562 184 Z M 55.726562 57.414062 "/></clipPath><clipPath id="4d5140111f"><path d="M 190 57.414062 L 320.476562 57.414062 L 320.476562 184 L 190 184 Z M 190 57.414062 "/></clipPath></defs><g id="e0dfc5ddb4"><g clip-rule="nonzero" clip-path="url(#464315478c)"><g clip-rule="nonzero" clip-path="url(#c64d1d0033)"><g transform="matrix(1,0,0,1,13,13)"><g clip-path="url(#d29ba519e0)"><g clip-rule="nonzero" clip-path="url(#0307e2a9d0)"><g clip-rule="nonzero" clip-path="url(#e289ea19af)"><path style=" stroke:none;fill-rule:nonzero;fill:#1cadc4;fill-opacity:1;" d="M 0.574219 0.574219 L 348.425781 0.574219 L 348.425781 348.425781 L 0.574219 348.425781 Z M 0.574219 0.574219 "/></g></g></g></g></g></g><path style=" stroke:none;fill-rule:nonzero;fill:#ffffff;fill-opacity:1;" d="M 187.742188 146.175781 C 172.25 125.355469 150.28125 113.902344 125.855469 105.902344 C 117.273438 103.09375 109.234375 98.632812 100.367188 94.660156 C 106.574219 82.464844 111.808594 72.171875 117.199219 61.574219 C 131.921875 67.632812 146.3125 73.097656 160.296875 79.449219 C 172.371094 84.929688 182.96875 92.507812 188.246094 106.972656 C 197.234375 86.347656 215.289062 79.382812 233.109375 72.164062 C 241.671875 68.695312 250.371094 65.554688 259.898438 61.929688 C 264.953125 71.800781 270.21875 82.070312 275.703125 92.769531 C 270.042969 99.421875 262.332031 102.371094 254.449219 104.929688 C 238.121094 110.238281 221.953125 115.96875 208.523438 127.128906 C 201.457031 133.003906 194.941406 139.539062 187.746094 146.175781 Z M 187.742188 146.175781 "/><path style=" stroke:none;fill-rule:nonzero;fill:#ffffff;fill-opacity:1;" d="M 282.769531 95.789062 C 277.53125 85.132812 272.449219 74.800781 267.066406 63.855469 C 274.855469 64.789062 279.933594 67.46875 283.125 74.421875 C 287.570312 84.09375 293.125 93.25 298.523438 103.222656 C 265.855469 122.90625 233.351562 142.492188 200.636719 162.207031 C 197.511719 159.75 194.566406 157.433594 191.480469 155.007812 C 207.820312 134.078125 227.265625 118.632812 252.847656 111.617188 C 263.617188 108.664062 274.085938 104.675781 282.769531 95.789062 Z M 282.769531 95.789062 "/><path style=" stroke:none;fill-rule:nonzero;fill:#ffffff;fill-opacity:1;" d="M 78.429688 103.1875 C 84.675781 91.71875 90.113281 80.597656 96.726562 70.222656 C 98.929688 66.765625 104.148438 65.230469 107.988281 62.816406 C 108.5625 63.332031 109.140625 63.851562 109.71875 64.367188 C 105.601562 72.644531 101.832031 81.125 97.246094 89.136719 C 94.085938 94.660156 94.703125 98.394531 100.363281 101.074219 C 107.40625 104.40625 114.273438 108.496094 121.683594 110.605469 C 147.824219 118.042969 168.625 132.789062 184.914062 154.71875 C 184.191406 155.476562 183.460938 156.398438 182.578125 157.128906 C 180.585938 158.789062 178.519531 160.355469 176.238281 162.148438 C 143.773438 142.578125 111.472656 123.105469 78.429688 103.191406 Z M 78.429688 103.1875 "/><g clip-rule="nonzero" clip-path="url(#b3fa3a8296)"><path style=" stroke:none;fill-rule:nonzero;fill:#ffffff;fill-opacity:1;" d="M 118.617188 183.769531 C 120.996094 170.9375 130.304688 166.171875 139.753906 161.683594 C 140.917969 161.125 143 161.425781 144.179688 162.128906 C 156.960938 169.777344 169.648438 177.589844 183.308594 185.9375 C 153.734375 203.863281 124.976562 221.289062 94.234375 239.917969 C 94.234375 235.367188 93.539062 232.304688 94.359375 229.730469 C 97.648438 219.421875 103.859375 211.992188 114.097656 207.015625 C 123.175781 202.597656 131.171875 195.878906 139.390625 189.832031 C 142.195312 187.769531 144.929688 184.984375 146.363281 181.902344 C 147.417969 179.65625 147.332031 175.433594 145.859375 173.839844 C 144.359375 172.21875 139.976562 171.527344 137.851562 172.535156 C 131.449219 175.570312 125.527344 179.632812 118.613281 183.773438 Z M 118.617188 183.769531 "/></g><g clip-rule="nonzero" clip-path="url(#2baf5eb0ca)"><path style=" stroke:none;fill-rule:nonzero;fill:#ffffff;fill-opacity:1;" d="M 193.628906 185.921875 C 207.1875 177.65625 219.503906 170.054688 231.957031 162.667969 C 233.492188 161.757812 236.117188 161.222656 237.59375 161.910156 C 246.910156 166.242188 255.976562 171.023438 258.25 183.558594 C 252.722656 180.289062 247.585938 177.300781 242.507812 174.222656 C 238.53125 171.8125 234.4375 169.09375 230.550781 173.96875 C 226.707031 178.792969 229.9375 183.046875 233.378906 185.671875 C 244.289062 193.996094 255.054688 202.855469 267.074219 209.273438 C 276.984375 214.570312 279.441406 223.683594 283.675781 232.132812 C 284.398438 233.570312 282.675781 236.234375 281.804688 239.332031 C 252.109375 221.34375 223.375 203.941406 193.625 185.921875 Z M 193.628906 185.921875 "/></g><g clip-rule="nonzero" clip-path="url(#2a81475d04)"><path style=" stroke:none;fill-rule:nonzero;fill:#ffffff;fill-opacity:1;" d="M 55.832031 102.917969 C 66.164062 87.796875 69.011719 69.457031 82.414062 57.414062 C 83.113281 57.777344 83.816406 58.140625 84.519531 58.503906 C 77.878906 72.445312 71.242188 86.382812 64.371094 100.816406 C 71.496094 105.1875 78.117188 109.292969 84.78125 113.335938 C 116.929688 132.839844 149.046875 152.398438 181.292969 171.738281 C 185.792969 174.4375 188.296875 177.226562 185.566406 183.574219 C 142.617188 156.871094 99.753906 130.222656 55.832031 102.917969 Z M 55.832031 102.917969 "/></g><g clip-rule="nonzero" clip-path="url(#4d5140111f)"><path style=" stroke:none;fill-rule:nonzero;fill:#ffffff;fill-opacity:1;" d="M 312.542969 100.726562 C 305.8125 86.566406 299.214844 72.6875 292.617188 58.808594 C 293.054688 58.367188 293.492188 57.929688 293.929688 57.488281 C 296.441406 59.839844 299.792969 61.742188 301.320312 64.609375 C 307.90625 76.976562 313.960938 89.632812 320.695312 103.15625 C 277.648438 129.949219 234.753906 156.640625 191.523438 183.542969 C 188.90625 177.683594 190.738281 174.683594 195.699219 171.710938 C 232.644531 149.582031 269.410156 127.160156 306.226562 104.816406 C 308.226562 103.605469 310.15625 102.273438 312.542969 100.726562 Z M 312.542969 100.726562 "/></g><path style=" stroke:none;fill-rule:nonzero;fill:#ffffff;fill-opacity:1;" d="M 121.789062 193.769531 C 120.453125 191.808594 119.410156 190.269531 117.835938 187.953125 C 125.28125 183.765625 132.367188 179.535156 139.726562 175.851562 C 141.265625 175.078125 143.820312 176.335938 145.90625 176.65625 C 146.03125 177.257812 146.152344 177.863281 146.277344 178.464844 C 138.367188 183.410156 130.457031 188.351562 121.785156 193.773438 Z M 121.789062 193.769531 "/><path style=" stroke:none;fill-rule:nonzero;fill:#ffffff;fill-opacity:1;" d="M 255.726562 194.039062 C 246.867188 188.5625 238.875 183.625 230.722656 178.582031 C 236.324219 173.820312 237.183594 174.121094 258.453125 187.957031 C 257.710938 189.613281 256.917969 191.378906 255.726562 194.035156 Z M 255.726562 194.039062 "/><g style="fill:#ffffff;fill-opacity:1;"><g transform="translate(50.172829, 292.35732)"><path style="stroke:none" d="M 9.09375 -47.1875 C 9.859375 -47.1875 10.652344 -46.988281 11.46875 -46.59375 C 12.3125 -46.183594 12.957031 -45.644531 13.410156 -44.964844 L 30.472656 -18.707031 L 23.503906 -18.984375 L 40.902344 -44.976562 L 40.90625 -44.988281 C 41.941406 -46.453125 43.285156 -47.1875 44.945312 -47.1875 C 46.25 -47.1875 47.417969 -46.730469 48.4375 -45.8125 C 49.492188 -44.871094 50.019531 -43.660156 50.019531 -42.175781 L 50.019531 -4.019531 C 50.019531 -2.609375 49.554688 -1.425781 48.621094 -0.464844 C 47.679688 0.503906 46.453125 0.988281 44.945312 0.988281 C 43.441406 0.988281 42.210938 0.507812 41.246094 -0.453125 C 40.285156 -1.417969 39.804688 -2.605469 39.804688 -4.019531 L 39.804688 -36.304688 L 44.96875 -35.109375 L 30.71875 -13.386719 L 30.683594 -13.34375 C 30.214844 -12.773438 29.632812 -12.28125 28.941406 -11.867188 C 28.171875 -11.414062 27.375 -11.214844 26.554688 -11.273438 L 26.625 -12.257812 L 26.699219 -11.273438 C 25.921875 -11.210938 25.144531 -11.410156 24.375 -11.867188 C 23.679688 -12.28125 23.097656 -12.773438 22.628906 -13.34375 L 22.59375 -13.390625 L 9.675781 -33.8125 L 11.632812 -37.800781 L 13.511719 -37.367188 L 13.511719 -4.019531 C 13.511719 -2.621094 13.070312 -1.445312 12.195312 -0.484375 C 11.296875 0.496094 10.132812 0.988281 8.699219 0.988281 C 7.308594 0.988281 6.167969 0.496094 5.265625 -0.484375 C 4.390625 -1.445312 3.953125 -2.621094 3.953125 -4.019531 L 3.953125 -42.175781 C 3.953125 -43.554688 4.460938 -44.734375 5.472656 -45.71875 C 6.476562 -46.699219 7.683594 -47.1875 9.09375 -47.1875 Z M 9.09375 -45.210938 C 8.21875 -45.210938 7.472656 -44.90625 6.851562 -44.304688 C 6.238281 -43.707031 5.929688 -42.996094 5.929688 -42.175781 L 5.929688 -4.019531 C 5.929688 -3.132812 6.195312 -2.398438 6.726562 -1.820312 C 7.234375 -1.265625 7.890625 -0.988281 8.699219 -0.988281 C 9.550781 -0.988281 10.230469 -1.265625 10.738281 -1.820312 C 11.269531 -2.398438 11.53125 -3.132812 11.53125 -4.019531 L 11.53125 -37.367188 L 12.519531 -37.367188 L 13.410156 -36.929688 L 11.695312 -33.4375 L 10.808594 -33.875 L 11.644531 -34.402344 L 24.230469 -14.5 L 23.394531 -13.972656 L 24.160156 -14.597656 C 24.480469 -14.203125 24.890625 -13.863281 25.382812 -13.570312 C 25.796875 -13.324219 26.183594 -13.214844 26.546875 -13.242188 L 26.621094 -13.25 L 26.695312 -13.242188 C 27.105469 -13.214844 27.515625 -13.324219 27.933594 -13.570312 C 28.425781 -13.863281 28.832031 -14.203125 29.15625 -14.597656 L 29.917969 -13.972656 L 29.09375 -14.511719 L 42.539062 -35.007812 L 43.363281 -34.46875 L 43.140625 -33.503906 L 40.570312 -34.097656 L 40.792969 -35.058594 L 41.78125 -35.058594 L 41.78125 -4.019531 C 41.78125 -3.152344 42.070312 -2.429688 42.644531 -1.851562 C 43.222656 -1.277344 43.988281 -0.988281 44.945312 -0.988281 C 45.898438 -0.988281 46.648438 -1.273438 47.203125 -1.84375 C 47.761719 -2.417969 48.042969 -3.144531 48.042969 -4.019531 L 48.042969 -42.175781 C 48.042969 -43.070312 47.734375 -43.789062 47.121094 -44.339844 C 46.472656 -44.917969 45.75 -45.210938 44.945312 -45.210938 C 43.96875 -45.210938 43.164062 -44.753906 42.523438 -43.847656 L 41.714844 -44.417969 L 42.539062 -43.867188 L 26.128906 -19.351562 L 25.304688 -19.902344 L 25.347656 -20.890625 L 28.640625 -20.757812 L 28.601562 -19.769531 L 27.773438 -19.230469 L 11.765625 -43.871094 C 11.511719 -44.246094 11.128906 -44.5625 10.609375 -44.8125 C 10.0625 -45.078125 9.558594 -45.210938 9.09375 -45.210938 Z M 9.09375 -45.210938 "/></g></g><g style="fill:#ffffff;fill-opacity:1;"><g transform="translate(106.974396, 292.35732)"><path style="stroke:none" d="M 30.445312 -36.246094 C 31.867188 -36.246094 33.050781 -35.761719 33.988281 -34.792969 C 34.921875 -33.832031 35.390625 -32.648438 35.390625 -31.238281 L 35.390625 -3.230469 C 35.390625 1.003906 34.582031 4.398438 32.960938 6.953125 C 31.335938 9.523438 29.152344 11.378906 26.410156 12.511719 C 23.738281 13.617188 20.757812 14.167969 17.464844 14.167969 C 16.011719 14.167969 14.472656 14.054688 12.847656 13.832031 C 11.175781 13.597656 9.792969 13.246094 8.699219 12.769531 C 7.1875 12.113281 6.121094 11.265625 5.507812 10.222656 C 4.851562 9.113281 4.722656 7.933594 5.121094 6.6875 C 5.597656 5.15625 6.394531 4.09375 7.515625 3.507812 C 8.652344 2.910156 9.839844 2.835938 11.078125 3.289062 L 10.742188 4.21875 L 11.035156 3.273438 C 11.765625 3.5 12.714844 3.851562 13.878906 4.324219 C 14.902344 4.734375 16.097656 4.941406 17.464844 4.941406 C 19.355469 4.941406 20.910156 4.691406 22.128906 4.191406 C 23.25 3.734375 24.09375 2.964844 24.660156 1.878906 C 25.265625 0.726562 25.570312 -0.886719 25.570312 -2.964844 L 25.570312 -10.011719 L 29.128906 -5.945312 L 28.820312 -5.347656 C 28.015625 -3.78125 27 -2.480469 25.777344 -1.453125 C 24.558594 -0.421875 23.113281 0.355469 21.449219 0.878906 C 19.816406 1.390625 17.960938 1.648438 15.882812 1.648438 C 13.367188 1.648438 11.160156 1.058594 9.265625 -0.117188 C 7.371094 -1.289062 5.902344 -2.914062 4.851562 -4.992188 C 3.8125 -7.042969 3.296875 -9.375 3.296875 -11.996094 L 3.296875 -31.238281 C 3.296875 -32.648438 3.761719 -33.832031 4.695312 -34.792969 C 5.636719 -35.761719 6.816406 -36.246094 8.238281 -36.246094 C 9.660156 -36.246094 10.839844 -35.761719 11.78125 -34.792969 C 12.714844 -33.832031 13.179688 -32.648438 13.179688 -31.238281 L 13.179688 -14.367188 C 13.179688 -11.796875 13.703125 -10.03125 14.742188 -9.0625 C 15.804688 -8.074219 17.328125 -7.578125 19.308594 -7.578125 C 20.675781 -7.578125 21.808594 -7.832031 22.714844 -8.339844 C 23.589844 -8.835938 24.265625 -9.570312 24.75 -10.550781 C 25.253906 -11.578125 25.503906 -12.851562 25.503906 -14.367188 L 25.503906 -31.238281 C 25.503906 -32.648438 25.972656 -33.832031 26.902344 -34.792969 C 27.84375 -35.761719 29.027344 -36.246094 30.445312 -36.246094 Z M 30.445312 -34.269531 C 29.582031 -34.269531 28.875 -33.984375 28.320312 -33.414062 C 27.761719 -32.839844 27.480469 -32.113281 27.480469 -31.238281 L 27.480469 -14.367188 C 27.480469 -12.542969 27.164062 -10.980469 26.523438 -9.679688 C 25.863281 -8.332031 24.914062 -7.3125 23.683594 -6.617188 C 22.476562 -5.941406 21.019531 -5.601562 19.308594 -5.601562 C 16.808594 -5.601562 14.839844 -6.273438 13.398438 -7.613281 C 11.933594 -8.972656 11.203125 -11.222656 11.203125 -14.367188 L 11.203125 -31.238281 C 11.203125 -32.113281 10.921875 -32.839844 10.363281 -33.414062 C 9.808594 -33.984375 9.101562 -34.269531 8.238281 -34.269531 C 7.375 -34.269531 6.664062 -33.984375 6.113281 -33.414062 C 5.550781 -32.839844 5.273438 -32.113281 5.273438 -31.238281 L 5.273438 -11.996094 C 5.273438 -9.691406 5.71875 -7.652344 6.617188 -5.882812 C 7.5 -4.136719 8.730469 -2.773438 10.308594 -1.796875 C 11.882812 -0.816406 13.742188 -0.328125 15.882812 -0.328125 C 17.757812 -0.328125 19.417969 -0.554688 20.859375 -1.007812 C 22.269531 -1.453125 23.484375 -2.105469 24.503906 -2.964844 C 25.523438 -3.824219 26.378906 -4.917969 27.0625 -6.253906 L 27.941406 -5.800781 L 27.199219 -5.148438 L 25.816406 -6.730469 L 26.558594 -7.382812 L 27.546875 -7.382812 L 27.546875 -2.964844 C 27.546875 -0.5625 27.167969 1.359375 26.414062 2.800781 C 25.621094 4.308594 24.441406 5.382812 22.878906 6.023438 C 21.421875 6.621094 19.613281 6.917969 17.464844 6.917969 C 15.84375 6.917969 14.402344 6.664062 13.140625 6.15625 C 12.023438 5.703125 11.125 5.375 10.445312 5.160156 L 10.425781 5.15625 L 10.402344 5.148438 C 9.710938 4.894531 9.054688 4.933594 8.433594 5.257812 C 7.796875 5.59375 7.320312 6.269531 7.003906 7.285156 C 6.785156 7.972656 6.855469 8.617188 7.210938 9.21875 C 7.609375 9.890625 8.367188 10.46875 9.488281 10.957031 C 10.417969 11.359375 11.625 11.664062 13.117188 11.871094 C 14.65625 12.085938 16.105469 12.191406 17.464844 12.191406 C 20.496094 12.191406 23.226562 11.691406 25.652344 10.683594 C 28.007812 9.710938 29.886719 8.113281 31.292969 5.898438 C 32.707031 3.664062 33.414062 0.621094 33.414062 -3.230469 L 33.414062 -31.238281 C 33.414062 -32.113281 33.132812 -32.839844 32.570312 -33.414062 C 32.019531 -33.984375 31.3125 -34.269531 30.445312 -34.269531 Z M 30.445312 -34.269531 "/></g></g><g style="fill:#ffffff;fill-opacity:1;"><g transform="translate(148.488421, 292.35732)"><path style="stroke:none" d="M 9.160156 -47.121094 C 10.476562 -47.121094 11.636719 -46.644531 12.640625 -45.695312 C 13.660156 -44.734375 14.167969 -43.539062 14.167969 -42.113281 L 14.167969 -4.019531 C 14.167969 -2.589844 13.644531 -1.390625 12.597656 -0.425781 C 11.574219 0.515625 10.382812 0.988281 9.027344 0.988281 C 7.519531 0.988281 6.296875 0.503906 5.355469 -0.464844 C 4.421875 -1.425781 3.953125 -2.609375 3.953125 -4.019531 L 3.953125 -42.113281 C 3.953125 -43.53125 4.449219 -44.722656 5.441406 -45.6875 C 6.421875 -46.644531 7.664062 -47.121094 9.160156 -47.121094 Z M 9.160156 -45.144531 C 8.199219 -45.144531 7.417969 -44.851562 6.816406 -44.269531 C 6.226562 -43.695312 5.929688 -42.976562 5.929688 -42.113281 L 5.929688 -4.019531 C 5.929688 -3.144531 6.210938 -2.417969 6.773438 -1.84375 C 7.324219 -1.273438 8.078125 -0.988281 9.027344 -0.988281 C 9.871094 -0.988281 10.613281 -1.285156 11.257812 -1.878906 C 11.878906 -2.453125 12.191406 -3.167969 12.191406 -4.019531 L 12.191406 -42.113281 C 12.191406 -42.96875 11.886719 -43.6875 11.28125 -44.261719 C 10.660156 -44.847656 9.953125 -45.144531 9.160156 -45.144531 Z M 38.355469 -47.121094 C 39.863281 -47.121094 41.089844 -46.636719 42.03125 -45.667969 C 42.964844 -44.707031 43.429688 -43.519531 43.429688 -42.113281 L 43.429688 -4.019531 C 43.429688 -2.605469 42.949219 -1.417969 41.988281 -0.453125 C 41.023438 0.507812 39.769531 0.988281 38.222656 0.988281 C 36.90625 0.988281 35.746094 0.515625 34.742188 -0.433594 C 33.722656 -1.398438 33.214844 -2.59375 33.214844 -4.019531 L 33.214844 -42.113281 C 33.214844 -43.542969 33.738281 -44.742188 34.785156 -45.707031 C 35.808594 -46.648438 37 -47.121094 38.355469 -47.121094 Z M 38.355469 -45.144531 C 37.515625 -45.144531 36.769531 -44.847656 36.125 -44.25 C 35.503906 -43.679688 35.191406 -42.964844 35.191406 -42.113281 L 35.191406 -4.019531 C 35.191406 -3.160156 35.496094 -2.445312 36.101562 -1.871094 C 36.722656 -1.28125 37.429688 -0.988281 38.222656 -0.988281 C 39.222656 -0.988281 40.011719 -1.277344 40.589844 -1.851562 C 41.164062 -2.429688 41.453125 -3.152344 41.453125 -4.019531 L 41.453125 -42.113281 C 41.453125 -42.988281 41.171875 -43.710938 40.613281 -44.289062 C 40.058594 -44.859375 39.308594 -45.144531 38.355469 -45.144531 Z M 8.960938 -27.941406 L 39.34375 -27.941406 L 39.34375 -18.386719 L 7.972656 -18.386719 L 7.972656 -27.941406 Z M 8.960938 -25.964844 L 8.960938 -26.953125 L 9.953125 -26.953125 L 9.953125 -19.375 L 8.960938 -19.375 L 8.960938 -20.363281 L 38.355469 -20.363281 L 38.355469 -19.375 L 37.367188 -19.375 L 37.367188 -26.953125 L 38.355469 -26.953125 L 38.355469 -25.964844 Z M 8.960938 -25.964844 "/></g></g><g style="fill:#ffffff;fill-opacity:1;"><g transform="translate(198.700526, 292.35732)"><path style="stroke:none" d="M 33.148438 -36.90625 C 34.5625 -36.90625 35.742188 -36.433594 36.683594 -35.496094 C 37.621094 -34.554688 38.089844 -33.355469 38.089844 -31.898438 L 38.089844 -4.019531 C 38.089844 -2.609375 37.625 -1.425781 36.691406 -0.464844 C 35.75 0.503906 34.570312 0.988281 33.148438 0.988281 C 31.726562 0.988281 30.546875 0.503906 29.605469 -0.464844 C 28.671875 -1.425781 28.207031 -2.609375 28.207031 -4.019531 L 28.207031 -8.722656 L 31.632812 -7.320312 L 31.632812 -6.65625 C 31.632812 -5.863281 31.257812 -4.972656 30.511719 -3.984375 C 29.839844 -3.097656 28.941406 -2.230469 27.8125 -1.382812 C 26.683594 -0.539062 25.363281 0.175781 23.847656 0.757812 C 22.308594 1.351562 20.640625 1.648438 18.847656 1.648438 C 15.625 1.648438 12.703125 0.816406 10.082031 -0.84375 C 7.46875 -2.5 5.410156 -4.78125 3.902344 -7.683594 C 2.398438 -10.570312 1.648438 -13.875 1.648438 -17.597656 C 1.648438 -21.359375 2.398438 -24.6875 3.902344 -27.574219 C 5.410156 -30.476562 7.445312 -32.753906 10.007812 -34.40625 C 12.589844 -36.074219 15.445312 -36.90625 18.585938 -36.90625 C 20.589844 -36.90625 22.4375 -36.601562 24.125 -35.988281 C 25.800781 -35.386719 27.261719 -34.613281 28.503906 -33.675781 C 29.75 -32.734375 30.722656 -31.773438 31.417969 -30.789062 C 32.175781 -29.714844 32.554688 -28.765625 32.554688 -27.941406 L 32.554688 -27.25 L 28.207031 -25.679688 L 28.207031 -31.898438 C 28.207031 -33.304688 28.671875 -34.492188 29.605469 -35.453125 C 30.546875 -36.421875 31.726562 -36.90625 33.148438 -36.90625 Z M 33.148438 -34.929688 C 32.285156 -34.929688 31.578125 -34.644531 31.023438 -34.074219 C 30.464844 -33.496094 30.183594 -32.773438 30.183594 -31.898438 L 30.183594 -27.085938 L 29.195312 -27.085938 L 28.859375 -28.015625 L 31.230469 -28.871094 L 31.566406 -27.941406 L 30.578125 -27.941406 C 30.578125 -28.347656 30.320312 -28.914062 29.804688 -29.644531 C 29.226562 -30.460938 28.398438 -31.28125 27.3125 -32.097656 C 26.230469 -32.914062 24.941406 -33.59375 23.453125 -34.128906 C 21.980469 -34.664062 20.359375 -34.929688 18.585938 -34.929688 C 15.835938 -34.929688 13.332031 -34.199219 11.082031 -32.746094 C 8.8125 -31.28125 7.003906 -29.253906 5.65625 -26.664062 C 4.300781 -24.058594 3.625 -21.039062 3.625 -17.597656 C 3.625 -14.199219 4.300781 -11.199219 5.65625 -8.59375 C 7 -6.007812 8.828125 -3.980469 11.140625 -2.515625 C 13.4375 -1.058594 16.007812 -0.328125 18.847656 -0.328125 C 20.394531 -0.328125 21.824219 -0.582031 23.140625 -1.085938 C 24.480469 -1.605469 25.644531 -2.230469 26.625 -2.964844 C 27.605469 -3.699219 28.375 -4.4375 28.933594 -5.175781 C 29.414062 -5.8125 29.65625 -6.304688 29.65625 -6.65625 L 30.644531 -6.65625 L 30.269531 -5.742188 L 28.820312 -6.335938 L 29.195312 -7.25 L 30.183594 -7.25 L 30.183594 -4.019531 C 30.183594 -3.144531 30.464844 -2.417969 31.023438 -1.84375 C 31.578125 -1.273438 32.285156 -0.988281 33.148438 -0.988281 C 34.011719 -0.988281 34.722656 -1.273438 35.273438 -1.84375 C 35.835938 -2.417969 36.113281 -3.144531 36.113281 -4.019531 L 36.113281 -31.898438 C 36.113281 -32.808594 35.835938 -33.542969 35.285156 -34.097656 C 34.730469 -34.652344 34.019531 -34.929688 33.148438 -34.929688 Z M 19.835938 -7.578125 C 21.570312 -7.578125 23.078125 -8.007812 24.363281 -8.863281 C 25.664062 -9.730469 26.683594 -10.917969 27.417969 -12.425781 C 28.164062 -13.960938 28.535156 -15.683594 28.535156 -17.597656 C 28.535156 -19.554688 28.164062 -21.296875 27.417969 -22.832031 C 26.683594 -24.339844 25.664062 -25.527344 24.363281 -26.394531 C 23.078125 -27.25 21.570312 -27.679688 19.835938 -27.679688 C 18.148438 -27.679688 16.660156 -27.25 15.375 -26.394531 C 14.074219 -25.527344 13.058594 -24.339844 12.324219 -22.832031 C 11.578125 -21.296875 11.203125 -19.554688 11.203125 -17.597656 C 11.203125 -15.683594 11.578125 -13.960938 12.324219 -12.425781 C 13.058594 -10.917969 14.074219 -9.730469 15.375 -8.863281 C 16.660156 -8.007812 18.148438 -7.578125 19.835938 -7.578125 Z M 19.835938 -5.601562 C 17.746094 -5.601562 15.894531 -6.140625 14.28125 -7.21875 C 12.679688 -8.285156 11.4375 -9.730469 10.546875 -11.5625 C 9.664062 -13.367188 9.226562 -15.378906 9.226562 -17.597656 C 9.226562 -19.855469 9.664062 -21.890625 10.546875 -23.695312 C 11.4375 -25.527344 12.679688 -26.972656 14.28125 -28.039062 C 15.894531 -29.117188 17.746094 -29.65625 19.835938 -29.65625 C 21.96875 -29.65625 23.84375 -29.117188 25.460938 -28.039062 C 27.058594 -26.972656 28.304688 -25.527344 29.195312 -23.695312 C 30.074219 -21.890625 30.511719 -19.855469 30.511719 -17.597656 C 30.511719 -15.378906 30.074219 -13.367188 29.195312 -11.5625 C 28.304688 -9.730469 27.058594 -8.285156 25.460938 -7.21875 C 23.84375 -6.140625 21.96875 -5.601562 19.835938 -5.601562 Z M 19.835938 -5.601562 "/></g></g><g style="fill:#ffffff;fill-opacity:1;"><g transform="translate(242.916225, 292.35732)"><path style="stroke:none" d="M 22.40625 -49.757812 C 23.464844 -49.757812 24.5 -49.613281 25.511719 -49.324219 C 26.59375 -49.015625 27.5 -48.507812 28.234375 -47.800781 C 29.050781 -47.011719 29.457031 -45.996094 29.457031 -44.746094 C 29.457031 -43.375 29.042969 -42.277344 28.214844 -41.445312 C 27.382812 -40.617188 26.414062 -40.199219 25.304688 -40.199219 C 24.828125 -40.199219 24.15625 -40.308594 23.289062 -40.527344 C 22.574219 -40.703125 21.886719 -40.792969 21.21875 -40.792969 C 20.355469 -40.792969 19.71875 -40.625 19.308594 -40.289062 C 18.859375 -39.925781 18.558594 -39.515625 18.398438 -39.054688 C 18.214844 -38.523438 18.125 -38.070312 18.125 -37.695312 L 18.125 -4.019531 C 18.125 -2.609375 17.65625 -1.425781 16.722656 -0.464844 C 15.78125 0.503906 14.601562 0.988281 13.179688 0.988281 C 11.757812 0.988281 10.578125 0.503906 9.636719 -0.464844 C 8.703125 -1.425781 8.238281 -2.609375 8.238281 -4.019531 L 8.238281 -37.628906 C 8.238281 -41.027344 9.433594 -43.898438 11.828125 -46.246094 C 14.21875 -48.585938 17.746094 -49.757812 22.40625 -49.757812 Z M 22.40625 -47.777344 C 18.28125 -47.777344 15.21875 -46.796875 13.214844 -44.832031 C 11.214844 -42.875 10.214844 -40.472656 10.214844 -37.628906 L 10.214844 -4.019531 C 10.214844 -3.144531 10.496094 -2.417969 11.054688 -1.84375 C 11.609375 -1.273438 12.316406 -0.988281 13.179688 -0.988281 C 14.042969 -0.988281 14.753906 -1.273438 15.304688 -1.84375 C 15.867188 -2.417969 16.144531 -3.144531 16.144531 -4.019531 L 16.144531 -37.695312 C 16.144531 -38.289062 16.273438 -38.957031 16.53125 -39.699219 C 16.808594 -40.511719 17.320312 -41.222656 18.058594 -41.824219 C 18.832031 -42.453125 19.886719 -42.769531 21.21875 -42.769531 C 22.046875 -42.769531 22.898438 -42.660156 23.765625 -42.445312 C 24.480469 -42.265625 24.992188 -42.175781 25.304688 -42.175781 C 25.867188 -42.175781 26.371094 -42.398438 26.816406 -42.84375 C 27.257812 -43.289062 27.480469 -43.921875 27.480469 -44.746094 C 27.480469 -45.433594 27.273438 -45.976562 26.859375 -46.375 C 26.363281 -46.855469 25.734375 -47.203125 24.96875 -47.421875 C 24.136719 -47.660156 23.28125 -47.777344 22.40625 -47.777344 Z M 23.132812 -35.585938 C 24.453125 -35.585938 25.5625 -35.152344 26.457031 -34.289062 C 27.359375 -33.414062 27.8125 -32.308594 27.8125 -30.972656 C 27.8125 -29.640625 27.359375 -28.535156 26.457031 -27.660156 C 25.5625 -26.792969 24.453125 -26.359375 23.132812 -26.359375 L 5.667969 -26.359375 C 4.347656 -26.359375 3.238281 -26.792969 2.34375 -27.660156 C 1.441406 -28.535156 0.988281 -29.640625 0.988281 -30.972656 C 0.988281 -32.308594 1.441406 -33.414062 2.34375 -34.289062 C 3.238281 -35.152344 4.347656 -35.585938 5.667969 -35.585938 Z M 23.132812 -33.609375 L 5.667969 -33.609375 C 4.878906 -33.609375 4.230469 -33.363281 3.71875 -32.867188 C 3.21875 -32.378906 2.964844 -31.75 2.964844 -30.972656 C 2.964844 -30.199219 3.21875 -29.566406 3.71875 -29.082031 C 4.230469 -28.585938 4.878906 -28.339844 5.667969 -28.339844 L 23.132812 -28.339844 C 23.917969 -28.339844 24.570312 -28.585938 25.078125 -29.082031 C 25.582031 -29.566406 25.832031 -30.199219 25.832031 -30.972656 C 25.832031 -31.75 25.582031 -32.378906 25.078125 -32.867188 C 24.570312 -33.363281 23.917969 -33.609375 23.132812 -33.609375 Z M 23.132812 -33.609375 "/></g></g><g style="fill:#ffffff;fill-opacity:1;"><g transform="translate(274.54609, 292.35732)"><path style="stroke:none" d="M 5.15625 -41.042969 C 5.59375 -40.703125 6.445312 -40.53125 7.710938 -40.53125 C 8.996094 -40.53125 9.882812 -40.703125 10.371094 -41.042969 C 10.75 -41.308594 10.941406 -41.90625 10.941406 -42.835938 L 10.941406 -44.089844 C 10.941406 -45 10.757812 -45.597656 10.394531 -45.882812 C 9.960938 -46.222656 9.085938 -46.394531 7.777344 -46.394531 C 6.574219 -46.394531 5.714844 -46.222656 5.199219 -45.875 C 4.808594 -45.609375 4.613281 -45.011719 4.613281 -44.089844 L 4.613281 -42.835938 C 4.613281 -41.925781 4.792969 -41.328125 5.15625 -41.042969 Z M 3.9375 -39.488281 C 3.070312 -40.171875 2.636719 -41.285156 2.636719 -42.835938 L 2.636719 -44.089844 C 2.636719 -45.710938 3.121094 -46.851562 4.089844 -47.511719 C 4.941406 -48.085938 6.167969 -48.371094 7.777344 -48.371094 C 9.542969 -48.371094 10.820312 -48.058594 11.617188 -47.4375 C 12.484375 -46.753906 12.917969 -45.640625 12.917969 -44.089844 L 12.917969 -42.835938 C 12.917969 -41.21875 12.445312 -40.082031 11.507812 -39.421875 C 10.675781 -38.84375 9.414062 -38.554688 7.710938 -38.554688 C 5.988281 -38.554688 4.730469 -38.863281 3.9375 -39.488281 Z M 9.902344 -1.84375 C 10.460938 -2.417969 10.742188 -3.144531 10.742188 -4.019531 L 10.742188 -31.238281 C 10.742188 -32.113281 10.460938 -32.839844 9.902344 -33.414062 C 9.347656 -33.984375 8.640625 -34.269531 7.777344 -34.269531 C 6.914062 -34.269531 6.203125 -33.984375 5.652344 -33.414062 C 5.089844 -32.839844 4.8125 -32.113281 4.8125 -31.238281 L 4.8125 -4.019531 C 4.8125 -3.144531 5.089844 -2.417969 5.652344 -1.84375 C 6.203125 -1.273438 6.914062 -0.988281 7.777344 -0.988281 C 8.640625 -0.988281 9.347656 -1.273438 9.902344 -1.84375 Z M 11.320312 -0.464844 C 10.378906 0.503906 9.199219 0.988281 7.777344 0.988281 C 6.355469 0.988281 5.175781 0.503906 4.234375 -0.464844 C 3.300781 -1.425781 2.832031 -2.609375 2.832031 -4.019531 L 2.832031 -31.238281 C 2.832031 -32.648438 3.300781 -33.832031 4.234375 -34.792969 C 5.175781 -35.761719 6.355469 -36.246094 7.777344 -36.246094 C 9.199219 -36.246094 10.378906 -35.761719 11.320312 -34.792969 C 12.253906 -33.832031 12.71875 -32.648438 12.71875 -31.238281 L 12.71875 -4.019531 C 12.71875 -2.609375 12.253906 -1.425781 11.320312 -0.464844 Z M 11.320312 -0.464844 "/></g></g><g style="fill:#ffffff;fill-opacity:1;"><g transform="translate(292.931137, 292.35732)"><path style="stroke:none" d="M 26.757812 -8.238281 C 28.078125 -8.238281 29.1875 -7.804688 30.082031 -6.9375 C 30.984375 -6.0625 31.433594 -4.957031 31.433594 -3.625 C 31.433594 -2.339844 30.988281 -1.25 30.089844 -0.355469 C 29.195312 0.539062 28.082031 0.988281 26.757812 0.988281 L 5.535156 0.988281 C 4.128906 0.988281 2.996094 0.472656 2.140625 -0.554688 C 1.316406 -1.542969 0.933594 -2.5625 0.988281 -3.613281 C 1.039062 -4.34375 1.136719 -4.988281 1.285156 -5.554688 C 1.453125 -6.195312 1.84375 -6.902344 2.457031 -7.667969 L 21.148438 -31.839844 L 20.363281 -26.359375 L 6.128906 -26.359375 C 4.800781 -26.359375 3.691406 -26.808594 2.792969 -27.703125 C 1.898438 -28.601562 1.449219 -29.710938 1.449219 -31.039062 C 1.449219 -32.328125 1.902344 -33.414062 2.804688 -34.289062 C 3.699219 -35.152344 4.808594 -35.585938 6.128906 -35.585938 L 26.425781 -35.585938 C 27.722656 -35.585938 28.820312 -35.109375 29.71875 -34.15625 C 30.621094 -33.195312 31.015625 -32 30.90625 -30.570312 L 30.90625 -30.558594 L 30.902344 -30.546875 C 30.855469 -30.058594 30.769531 -29.574219 30.648438 -29.085938 C 30.503906 -28.511719 30.148438 -27.859375 29.578125 -27.132812 L 11.664062 -3.957031 L 11.664062 -8.238281 Z M 26.757812 -6.261719 L 12.652344 -6.261719 L 12.652344 -7.25 L 13.640625 -7.25 L 13.640625 -6.855469 L 12.652344 -6.855469 L 11.871094 -7.457031 L 28.023438 -28.355469 C 28.417969 -28.859375 28.65625 -29.261719 28.730469 -29.566406 C 28.828125 -29.960938 28.898438 -30.351562 28.9375 -30.742188 L 29.917969 -30.644531 L 28.933594 -30.71875 C 29 -31.574219 28.78125 -32.265625 28.277344 -32.800781 C 27.769531 -33.339844 27.152344 -33.609375 26.425781 -33.609375 L 6.128906 -33.609375 C 5.339844 -33.609375 4.691406 -33.363281 4.179688 -32.867188 C 3.679688 -32.378906 3.425781 -31.769531 3.425781 -31.039062 C 3.425781 -30.257812 3.683594 -29.613281 4.191406 -29.101562 C 4.703125 -28.59375 5.347656 -28.339844 6.128906 -28.339844 L 19.507812 -28.339844 L 19.507812 -27.347656 L 18.527344 -27.488281 L 18.660156 -28.410156 L 19.640625 -28.273438 L 20.421875 -27.667969 L 4 -6.433594 C 3.5625 -5.882812 3.292969 -5.425781 3.195312 -5.054688 C 3.082031 -4.609375 3.003906 -4.09375 2.964844 -3.503906 C 2.933594 -2.972656 3.167969 -2.410156 3.660156 -1.820312 C 4.121094 -1.265625 4.746094 -0.988281 5.535156 -0.988281 L 26.757812 -0.988281 C 27.539062 -0.988281 28.183594 -1.242188 28.695312 -1.753906 C 29.203125 -2.261719 29.457031 -2.886719 29.457031 -3.625 C 29.457031 -4.398438 29.207031 -5.03125 28.703125 -5.519531 C 28.195312 -6.011719 27.542969 -6.261719 26.757812 -6.261719 Z M 26.757812 -6.261719 "/></g></g><g style="fill:#ffffff;fill-opacity:1;"><g transform="translate(50.172829, 292.35732)"><path style="stroke:none" d="M 9.09375 -46.203125 C 9.707031 -46.203125 10.351562 -46.035156 11.03125 -45.703125 C 11.71875 -45.378906 12.238281 -44.953125 12.59375 -44.421875 L 28.609375 -19.765625 L 25.3125 -19.90625 L 41.71875 -44.421875 C 42.550781 -45.609375 43.628906 -46.203125 44.953125 -46.203125 C 46.003906 -46.203125 46.945312 -45.828125 47.78125 -45.078125 C 48.613281 -44.328125 49.03125 -43.363281 49.03125 -42.1875 L 49.03125 -4.015625 C 49.03125 -2.878906 48.65625 -1.925781 47.90625 -1.15625 C 47.164062 -0.382812 46.179688 0 44.953125 0 C 43.722656 0 42.722656 -0.382812 41.953125 -1.15625 C 41.179688 -1.925781 40.796875 -2.878906 40.796875 -4.015625 L 40.796875 -35.0625 L 43.359375 -34.46875 L 29.921875 -13.96875 C 29.523438 -13.488281 29.03125 -13.070312 28.4375 -12.71875 C 27.84375 -12.363281 27.238281 -12.210938 26.625 -12.265625 C 26.050781 -12.210938 25.46875 -12.363281 24.875 -12.71875 C 24.28125 -13.070312 23.785156 -13.488281 23.390625 -13.96875 L 10.8125 -33.875 L 12.515625 -37.375 L 12.515625 -4.015625 C 12.515625 -2.878906 12.160156 -1.925781 11.453125 -1.15625 C 10.753906 -0.382812 9.835938 0 8.703125 0 C 7.597656 0 6.691406 -0.382812 5.984375 -1.15625 C 5.285156 -1.925781 4.9375 -2.878906 4.9375 -4.015625 L 4.9375 -42.1875 C 4.9375 -43.28125 5.34375 -44.222656 6.15625 -45.015625 C 6.96875 -45.804688 7.945312 -46.203125 9.09375 -46.203125 Z M 9.09375 -46.203125 "/></g></g><g style="fill:#ffffff;fill-opacity:1;"><g transform="translate(106.974396, 292.35732)"><path style="stroke:none" d="M 30.453125 -35.265625 C 31.585938 -35.265625 32.53125 -34.878906 33.28125 -34.109375 C 34.03125 -33.335938 34.40625 -32.378906 34.40625 -31.234375 L 34.40625 -3.234375 C 34.40625 0.804688 33.644531 4.023438 32.125 6.421875 C 30.613281 8.816406 28.582031 10.539062 26.03125 11.59375 C 23.476562 12.65625 20.625 13.1875 17.46875 13.1875 C 16.0625 13.1875 14.566406 13.070312 12.984375 12.84375 C 11.398438 12.625 10.101562 12.296875 9.09375 11.859375 C 7.78125 11.285156 6.867188 10.570312 6.359375 9.71875 C 5.859375 8.863281 5.757812 7.953125 6.0625 6.984375 C 6.457031 5.710938 7.09375 4.84375 7.96875 4.375 C 8.851562 3.914062 9.78125 3.863281 10.75 4.21875 C 11.445312 4.4375 12.363281 4.773438 13.5 5.234375 C 14.644531 5.703125 15.96875 5.9375 17.46875 5.9375 C 19.488281 5.9375 21.164062 5.660156 22.5 5.109375 C 23.84375 4.554688 24.851562 3.628906 25.53125 2.328125 C 26.21875 1.035156 26.5625 -0.726562 26.5625 -2.96875 L 26.5625 -7.375 L 27.9375 -5.796875 C 27.195312 -4.347656 26.265625 -3.148438 25.140625 -2.203125 C 24.023438 -1.265625 22.695312 -0.550781 21.15625 -0.0625 C 19.613281 0.414062 17.859375 0.65625 15.890625 0.65625 C 13.554688 0.65625 11.519531 0.117188 9.78125 -0.953125 C 8.050781 -2.035156 6.703125 -3.53125 5.734375 -5.4375 C 4.765625 -7.34375 4.28125 -9.53125 4.28125 -12 L 4.28125 -31.234375 C 4.28125 -32.378906 4.65625 -33.335938 5.40625 -34.109375 C 6.15625 -34.878906 7.097656 -35.265625 8.234375 -35.265625 C 9.378906 -35.265625 10.320312 -34.878906 11.0625 -34.109375 C 11.8125 -33.335938 12.1875 -32.378906 12.1875 -31.234375 L 12.1875 -14.375 C 12.1875 -11.507812 12.8125 -9.492188 14.0625 -8.328125 C 15.320312 -7.171875 17.070312 -6.59375 19.3125 -6.59375 C 20.851562 -6.59375 22.148438 -6.890625 23.203125 -7.484375 C 24.253906 -8.078125 25.066406 -8.953125 25.640625 -10.109375 C 26.210938 -11.273438 26.5 -12.695312 26.5 -14.375 L 26.5 -31.234375 C 26.5 -32.378906 26.867188 -33.335938 27.609375 -34.109375 C 28.359375 -34.878906 29.304688 -35.265625 30.453125 -35.265625 Z M 30.453125 -35.265625 "/></g></g><g style="fill:#ffffff;fill-opacity:1;"><g transform="translate(148.488421, 292.35732)"><path style="stroke:none" d="M 9.15625 -46.140625 C 10.21875 -46.140625 11.15625 -45.753906 11.96875 -44.984375 C 12.78125 -44.210938 13.1875 -43.253906 13.1875 -42.109375 L 13.1875 -4.015625 C 13.1875 -2.878906 12.765625 -1.925781 11.921875 -1.15625 C 11.085938 -0.382812 10.125 0 9.03125 0 C 7.800781 0 6.8125 -0.382812 6.0625 -1.15625 C 5.3125 -1.925781 4.9375 -2.878906 4.9375 -4.015625 L 4.9375 -42.109375 C 4.9375 -43.253906 5.332031 -44.210938 6.125 -44.984375 C 6.914062 -45.753906 7.925781 -46.140625 9.15625 -46.140625 Z M 38.359375 -46.140625 C 39.585938 -46.140625 40.570312 -45.753906 41.3125 -44.984375 C 42.0625 -44.210938 42.4375 -43.253906 42.4375 -42.109375 L 42.4375 -4.015625 C 42.4375 -2.878906 42.050781 -1.925781 41.28125 -1.15625 C 40.519531 -0.382812 39.5 0 38.21875 0 C 37.164062 0 36.234375 -0.382812 35.421875 -1.15625 C 34.609375 -1.925781 34.203125 -2.878906 34.203125 -4.015625 L 34.203125 -42.109375 C 34.203125 -43.253906 34.617188 -44.210938 35.453125 -44.984375 C 36.285156 -45.753906 37.253906 -46.140625 38.359375 -46.140625 Z M 8.96875 -26.953125 L 38.359375 -26.953125 L 38.359375 -19.375 L 8.96875 -19.375 Z M 8.96875 -26.953125 "/></g></g><g style="fill:#ffffff;fill-opacity:1;"><g transform="translate(198.700526, 292.35732)"><path style="stroke:none" d="M 33.15625 -35.921875 C 34.289062 -35.921875 35.234375 -35.546875 35.984375 -34.796875 C 36.734375 -34.046875 37.109375 -33.082031 37.109375 -31.90625 L 37.109375 -4.015625 C 37.109375 -2.878906 36.734375 -1.925781 35.984375 -1.15625 C 35.234375 -0.382812 34.289062 0 33.15625 0 C 32.007812 0 31.0625 -0.382812 30.3125 -1.15625 C 29.570312 -1.925781 29.203125 -2.878906 29.203125 -4.015625 L 29.203125 -7.25 L 30.640625 -6.65625 C 30.640625 -6.082031 30.332031 -5.390625 29.71875 -4.578125 C 29.101562 -3.765625 28.269531 -2.960938 27.21875 -2.171875 C 26.164062 -1.378906 24.925781 -0.707031 23.5 -0.15625 C 22.070312 0.382812 20.519531 0.65625 18.84375 0.65625 C 15.8125 0.65625 13.066406 -0.117188 10.609375 -1.671875 C 8.148438 -3.234375 6.207031 -5.390625 4.78125 -8.140625 C 3.351562 -10.890625 2.640625 -14.039062 2.640625 -17.59375 C 2.640625 -21.195312 3.351562 -24.367188 4.78125 -27.109375 C 6.207031 -29.859375 8.128906 -32.015625 10.546875 -33.578125 C 12.960938 -35.140625 15.640625 -35.921875 18.578125 -35.921875 C 20.472656 -35.921875 22.210938 -35.632812 23.796875 -35.0625 C 25.378906 -34.488281 26.75 -33.757812 27.90625 -32.875 C 29.070312 -32 29.972656 -31.109375 30.609375 -30.203125 C 31.242188 -29.304688 31.5625 -28.550781 31.5625 -27.9375 L 29.203125 -27.09375 L 29.203125 -31.90625 C 29.203125 -33.039062 29.570312 -33.992188 30.3125 -34.765625 C 31.0625 -35.535156 32.007812 -35.921875 33.15625 -35.921875 Z M 19.84375 -6.59375 C 21.769531 -6.59375 23.457031 -7.070312 24.90625 -8.03125 C 26.363281 -9 27.5 -10.316406 28.3125 -11.984375 C 29.125 -13.660156 29.53125 -15.53125 29.53125 -17.59375 C 29.53125 -19.707031 29.125 -21.597656 28.3125 -23.265625 C 27.5 -24.929688 26.363281 -26.25 24.90625 -27.21875 C 23.457031 -28.1875 21.769531 -28.671875 19.84375 -28.671875 C 17.945312 -28.671875 16.273438 -28.1875 14.828125 -27.21875 C 13.378906 -26.25 12.25 -24.929688 11.4375 -23.265625 C 10.625 -21.597656 10.21875 -19.707031 10.21875 -17.59375 C 10.21875 -15.53125 10.625 -13.660156 11.4375 -11.984375 C 12.25 -10.316406 13.378906 -9 14.828125 -8.03125 C 16.273438 -7.070312 17.945312 -6.59375 19.84375 -6.59375 Z M 19.84375 -6.59375 "/></g></g><g style="fill:#ffffff;fill-opacity:1;"><g transform="translate(242.916225, 292.35732)"><path style="stroke:none" d="M 22.40625 -48.765625 C 23.375 -48.765625 24.316406 -48.632812 25.234375 -48.375 C 26.160156 -48.113281 26.929688 -47.6875 27.546875 -47.09375 C 28.160156 -46.5 28.46875 -45.71875 28.46875 -44.75 C 28.46875 -43.65625 28.148438 -42.785156 27.515625 -42.140625 C 26.878906 -41.503906 26.144531 -41.1875 25.3125 -41.1875 C 24.914062 -41.1875 24.320312 -41.285156 23.53125 -41.484375 C 22.738281 -41.679688 21.96875 -41.78125 21.21875 -41.78125 C 20.125 -41.78125 19.28125 -41.535156 18.6875 -41.046875 C 18.09375 -40.566406 17.6875 -40.007812 17.46875 -39.375 C 17.25 -38.738281 17.140625 -38.179688 17.140625 -37.703125 L 17.140625 -4.015625 C 17.140625 -2.878906 16.765625 -1.925781 16.015625 -1.15625 C 15.265625 -0.382812 14.320312 0 13.1875 0 C 12.039062 0 11.09375 -0.382812 10.34375 -1.15625 C 9.601562 -1.925781 9.234375 -2.878906 9.234375 -4.015625 L 9.234375 -37.625 C 9.234375 -40.75 10.328125 -43.382812 12.515625 -45.53125 C 14.710938 -47.6875 18.007812 -48.765625 22.40625 -48.765625 Z M 23.140625 -34.59375 C 24.191406 -34.59375 25.066406 -34.253906 25.765625 -33.578125 C 26.472656 -32.898438 26.828125 -32.03125 26.828125 -30.96875 C 26.828125 -29.914062 26.472656 -29.046875 25.765625 -28.359375 C 25.066406 -27.679688 24.191406 -27.34375 23.140625 -27.34375 L 5.671875 -27.34375 C 4.617188 -27.34375 3.738281 -27.679688 3.03125 -28.359375 C 2.332031 -29.046875 1.984375 -29.914062 1.984375 -30.96875 C 1.984375 -32.03125 2.332031 -32.898438 3.03125 -33.578125 C 3.738281 -34.253906 4.617188 -34.59375 5.671875 -34.59375 Z M 23.140625 -34.59375 "/></g></g><g style="fill:#ffffff;fill-opacity:1;"><g transform="translate(274.54609, 292.35732)"><path style="stroke:none" d="M 11.734375 -4.015625 C 11.734375 -2.878906 11.359375 -1.925781 10.609375 -1.15625 C 9.859375 -0.382812 8.914062 0 7.78125 0 C 6.632812 0 5.6875 -0.382812 4.9375 -1.15625 C 4.195312 -1.925781 3.828125 -2.878906 3.828125 -4.015625 L 3.828125 -31.234375 C 3.828125 -32.378906 4.195312 -33.335938 4.9375 -34.109375 C 5.6875 -34.878906 6.632812 -35.265625 7.78125 -35.265625 C 8.914062 -35.265625 9.859375 -34.878906 10.609375 -34.109375 C 11.359375 -33.335938 11.734375 -32.378906 11.734375 -31.234375 Z M 7.703125 -39.546875 C 6.210938 -39.546875 5.160156 -39.785156 4.546875 -40.265625 C 3.929688 -40.753906 3.625 -41.613281 3.625 -42.84375 L 3.625 -44.09375 C 3.625 -45.363281 3.960938 -46.226562 4.640625 -46.6875 C 5.328125 -47.15625 6.375 -47.390625 7.78125 -47.390625 C 9.3125 -47.390625 10.382812 -47.144531 11 -46.65625 C 11.613281 -46.175781 11.921875 -45.320312 11.921875 -44.09375 L 11.921875 -42.84375 C 11.921875 -41.5625 11.59375 -40.691406 10.9375 -40.234375 C 10.28125 -39.773438 9.203125 -39.546875 7.703125 -39.546875 Z M 7.703125 -39.546875 "/></g></g><g style="fill:#ffffff;fill-opacity:1;"><g transform="translate(292.931137, 292.35732)"><path style="stroke:none" d="M 26.765625 -7.25 C 27.816406 -7.25 28.691406 -6.90625 29.390625 -6.21875 C 30.097656 -5.539062 30.453125 -4.675781 30.453125 -3.625 C 30.453125 -2.613281 30.097656 -1.753906 29.390625 -1.046875 C 28.691406 -0.347656 27.816406 0 26.765625 0 L 5.53125 0 C 4.4375 0 3.554688 -0.394531 2.890625 -1.1875 C 2.234375 -1.976562 1.929688 -2.769531 1.984375 -3.5625 C 2.023438 -4.21875 2.109375 -4.796875 2.234375 -5.296875 C 2.367188 -5.804688 2.703125 -6.390625 3.234375 -7.046875 L 19.640625 -28.28125 L 19.515625 -27.34375 L 6.125 -27.34375 C 5.070312 -27.34375 4.191406 -27.691406 3.484375 -28.390625 C 2.785156 -29.097656 2.4375 -29.984375 2.4375 -31.046875 C 2.4375 -32.054688 2.785156 -32.898438 3.484375 -33.578125 C 4.191406 -34.253906 5.070312 -34.59375 6.125 -34.59375 L 26.421875 -34.59375 C 27.429688 -34.59375 28.285156 -34.21875 28.984375 -33.46875 C 29.691406 -32.726562 30.003906 -31.785156 29.921875 -30.640625 C 29.878906 -30.203125 29.800781 -29.765625 29.6875 -29.328125 C 29.582031 -28.890625 29.285156 -28.363281 28.796875 -27.75 L 12.65625 -6.859375 L 12.65625 -7.25 Z M 26.765625 -7.25 "/></g></g></g></svg>